<svg width="55" height="52" viewBox="0 0 55 52" fill="none" xmlns="http://www.w3.org/2000/svg">
<path d="M20.0521 51.3908C18.2951 51.3908 16.72 50.9325 15.3267 50.0158C13.9333 49.0991 12.854 47.8387 12.0885 46.2345C11.4774 47.0366 10.7044 47.6577 9.76938 48.0977C8.83438 48.5377 7.86958 48.7569 6.875 48.7554C4.92708 48.7554 3.29465 48.087 1.97771 46.7502C0.660764 45.4134 0.00152778 43.7901 0 41.8804C0 40.238 0.534722 38.7584 1.60417 37.4414C2.67361 36.1245 4.02951 35.3697 5.67188 35.1772C5.13715 34.4134 4.72694 33.6021 4.44125 32.7435C4.15556 31.8849 4.01194 30.9774 4.01042 30.021C4.01042 28.4932 4.40229 27.0609 5.18604 25.7241C5.96979 24.3873 7.0675 23.2988 8.47917 22.4585C8.67014 23.146 8.92833 23.8816 9.25375 24.6654C9.57917 25.4491 9.95118 26.1267 10.3698 26.6981C9.83507 27.1182 9.41493 27.6247 9.10938 28.2175C8.80382 28.8102 8.65104 29.4305 8.65104 30.0783C8.65104 32.2172 9.52951 33.5349 11.2865 34.0314C13.0434 34.5279 14.7049 34.929 16.2708 35.2345L17.3594 37.0679C16.9392 38.2901 16.5764 39.3313 16.2708 40.1914C15.9653 41.0516 15.8125 41.8246 15.8125 42.5106C15.8125 43.6564 16.2235 44.6594 17.0454 45.5195C17.8674 46.3797 18.8696 46.809 20.0521 46.8075C21.2743 46.8075 22.3247 46.34 23.2031 45.405C24.0816 44.47 24.8172 43.305 25.41 41.9102C26.0013 40.5153 26.4787 39.0349 26.8423 37.4689C27.2059 35.9029 27.5015 34.4897 27.7292 33.2293C27.8438 32.58 28.1684 32.0743 28.7031 31.7122C29.2378 31.3502 29.8108 31.2638 30.4219 31.4533C31.0712 31.6443 31.5585 32.0262 31.884 32.5991C32.2094 33.172 32.2949 33.7831 32.1406 34.4325C31.7969 36.1894 31.3576 38.0609 30.8229 40.047C30.2882 42.0332 29.5724 43.8665 28.6756 45.547C27.7773 47.2276 26.6315 48.6217 25.2381 49.7293C23.8448 50.837 22.1161 51.3908 20.0521 51.3908ZM6.875 44.172C7.52431 44.172 8.06896 43.9528 8.50896 43.5143C8.94896 43.0759 9.16819 42.5312 9.16667 41.8804C9.16667 41.2311 8.94667 40.6872 8.50667 40.2487C8.06667 39.8102 7.52278 39.5902 6.875 39.5887C6.22569 39.5887 5.68181 39.8087 5.24333 40.2487C4.80486 40.6887 4.58486 41.2326 4.58333 41.8804C4.58333 42.5297 4.80333 43.0743 5.24333 43.5143C5.68333 43.9543 6.22722 44.1736 6.875 44.172ZM24.8073 33.4585C24.3108 33.955 23.7088 34.175 23.0015 34.1185C22.2941 34.062 21.6738 33.7847 21.1406 33.2866C18.1997 30.613 15.8507 28.1877 14.0938 26.0106C12.3368 23.8335 11.4583 21.4845 11.4583 18.9637C11.4583 16.4811 12.3078 14.3895 14.0067 12.6891C15.7056 10.9887 17.7971 10.1393 20.2813 10.1408C20.434 10.1408 20.5677 10.1507 20.6823 10.1706C20.7969 10.1904 20.9306 10.1996 21.0833 10.1981C20.9306 9.81613 20.816 9.43419 20.7396 9.05225C20.6632 8.6703 20.625 8.26926 20.625 7.84912C20.625 5.9394 21.2934 4.31613 22.6302 2.97933C23.967 1.64252 25.5903 0.974121 27.5 0.974121C29.4097 0.974121 31.033 1.64252 32.3698 2.97933C33.7066 4.31613 34.375 5.9394 34.375 7.84912C34.375 8.26926 34.3368 8.66114 34.2604 9.02475C34.184 9.38836 34.0694 9.76037 33.9167 10.1408H34.7188C37.0104 10.1408 38.9583 10.8764 40.5625 12.3477C42.1667 13.8189 43.1215 15.6423 43.4271 17.8179C42.7396 17.7033 41.9665 17.646 41.1079 17.646C40.2493 17.646 39.4564 17.6842 38.7292 17.7606C38.4618 16.8821 37.9744 16.1564 37.2671 15.5835C36.5597 15.0106 35.7103 14.7241 34.7188 14.7241C33.3819 14.7241 32.3415 15.116 31.5975 15.8997C30.8535 16.6835 29.8314 17.8194 28.5312 19.3075H26.4115C25.0747 17.7415 24.0342 16.5857 23.2902 15.8402C22.5462 15.0946 21.5432 14.7234 20.2813 14.7264C19.059 14.7264 18.0469 15.1275 17.2448 15.9295C16.4427 16.7316 16.0417 17.743 16.0417 18.9637C16.0417 20.5679 16.7956 22.2393 18.3035 23.9779C19.8115 25.7165 21.8457 27.75 24.4062 30.0783C24.941 30.5366 25.2565 31.1004 25.3527 31.7695C25.449 32.4387 25.2672 33.0017 24.8073 33.4585ZM27.5 10.1408C28.1493 10.1408 28.694 9.92155 29.134 9.48308C29.574 9.04461 29.7932 8.49995 29.7917 7.84912C29.7917 7.19982 29.5717 6.65593 29.1317 6.21745C28.6917 5.77898 28.1478 5.55898 27.5 5.55745C26.8507 5.55745 26.3068 5.77745 25.8683 6.21745C25.4299 6.65745 25.2099 7.20134 25.2083 7.84912C25.2083 8.49843 25.4283 9.04308 25.8683 9.48308C26.3083 9.92308 26.8522 10.1423 27.5 10.1408ZM34.8906 51.3908C34.0504 51.3908 33.2192 51.2762 32.3973 51.047C31.5753 50.8179 30.7832 50.455 30.0208 49.9585C30.441 49.4238 30.8611 48.7936 31.2812 48.0679C31.7014 47.3422 32.0833 46.6738 32.4271 46.0627C32.8472 46.33 33.2674 46.521 33.6875 46.6356C34.1076 46.7502 34.5278 46.8075 34.9479 46.8075C36.1701 46.8075 37.1922 46.3782 38.0142 45.5195C38.8361 44.6609 39.2463 43.6388 39.2448 42.4533C39.2448 41.7276 39.092 40.9446 38.7865 40.1043C38.4809 39.2641 38.1181 38.2328 37.6979 37.0106L38.7865 35.1772C40.3906 34.8717 42.062 34.4706 43.8006 33.9741C45.5392 33.4776 46.4078 32.1599 46.4062 30.021C46.4062 28.4932 45.8433 27.3856 44.7173 26.6981C43.5913 26.0106 42.3592 25.6668 41.0208 25.6668C39.684 25.6668 38.1372 25.896 36.3802 26.3543C34.6233 26.8127 32.6181 27.4047 30.3646 28.1304C29.7153 28.3213 29.0851 28.2931 28.474 28.0456C27.8628 27.7981 27.4618 27.3489 27.2708 26.6981C27.0799 26.0488 27.1753 25.4377 27.5573 24.8647C27.9392 24.2918 28.4549 23.9099 29.1042 23.7189C31.5104 22.955 33.6875 22.3248 35.6354 21.8283C37.5833 21.3318 39.3976 21.0835 41.0781 21.0835C43.7135 21.0835 46.0243 21.8665 48.0104 23.4325C49.9965 24.9984 50.9896 27.1946 50.9896 30.021C50.9896 30.9759 50.8467 31.8834 50.561 32.7435C50.2753 33.6036 49.8644 34.4149 49.3281 35.1772C50.9705 35.3682 52.3264 36.1229 53.3958 37.4414C54.4653 38.7599 55 40.2395 55 41.8804C55 43.7901 54.3415 45.4134 53.0246 46.7502C51.7076 48.087 50.0744 48.7554 48.125 48.7554C47.1319 48.7554 46.1672 48.5361 45.2306 48.0977C44.2941 47.6592 43.521 47.0382 42.9115 46.2345C42.1476 47.8387 41.069 49.0991 39.6756 50.0158C38.2823 50.9325 36.6873 51.3908 34.8906 51.3908ZM48.1823 44.172C48.8316 44.172 49.3663 43.952 49.7865 43.512C50.2066 43.072 50.4167 42.5282 50.4167 41.8804C50.4167 41.2311 50.1967 40.6772 49.7567 40.2189C49.3167 39.7606 48.7728 39.5314 48.125 39.5314C47.4757 39.5314 46.9318 39.7514 46.4933 40.1914C46.0549 40.6314 45.8349 41.1753 45.8333 41.8231C45.8333 42.4724 46.0625 43.0262 46.5208 43.4845C46.9792 43.9429 47.533 44.172 48.1823 44.172Z" fill="#F9FAFB"/>
</svg>
