<svg width="120" height="119" viewBox="0 0 120 119" fill="none" xmlns="http://www.w3.org/2000/svg">
<path d="M107.4 66.3099C106.116 65.3292 104.621 64.6561 103.031 64.3432C101.441 64.0304 99.8003 64.0862 98.2359 64.5063L96.2109 64.9711C106.406 55.572 111.563 46.2565 111.563 37.1874C111.563 25.399 102.005 15.8046 90.2531 15.8046C86.9389 15.784 83.6655 16.5295 80.6924 17.9818C77.7193 19.4342 75.1283 21.5536 73.125 24.1718C71.1217 21.5536 68.5307 19.4342 65.5576 17.9818C62.5845 16.5295 59.3111 15.784 55.9969 15.8046C44.2453 15.8046 34.6875 25.399 34.6875 37.1874C34.6875 42.4774 36.3891 47.6418 39.9797 53.1595C37.0364 53.6096 34.316 54.9829 32.2172 57.0781L21.3375 67.8671H7.5C5.75952 67.8671 4.09032 68.5528 2.85961 69.7732C1.6289 70.9937 0.9375 72.649 0.9375 74.3749V92.9687C0.9375 94.6947 1.6289 96.35 2.85961 97.5704C4.09032 98.7909 5.75952 99.4765 7.5 99.4765H56.25C56.4807 99.4766 56.7106 99.4485 56.9344 99.3928L86.9344 91.9553C87.0764 91.918 87.2157 91.8714 87.3516 91.8159L105.548 84.1367L105.703 84.0669C107.312 83.2701 108.69 82.0803 109.707 80.6095C110.724 79.1387 111.347 77.4353 111.517 75.6599C111.686 73.8845 111.397 72.0954 110.677 70.4612C109.957 68.8271 108.829 67.4016 107.4 66.3192V66.3099ZM55.9969 21.3827C59.09 21.3418 62.1251 22.217 64.7137 23.8964C67.3024 25.5758 69.3269 27.9829 70.5281 30.8098C70.74 31.3213 71.1005 31.7588 71.5637 32.0668C72.0269 32.3747 72.572 32.5391 73.1297 32.5391C73.6874 32.5391 74.2324 32.3747 74.6957 32.0668C75.1589 31.7588 75.5194 31.3213 75.7313 30.8098C76.9325 27.9829 78.957 25.5758 81.5457 23.8964C84.1343 22.217 87.1694 21.3418 90.2625 21.3827C98.7563 21.3827 105.938 28.6204 105.938 37.1874C105.938 46.5959 98.3531 57.1757 84 67.7509L77.0297 69.3407C77.7249 67.5117 77.9623 65.5428 77.7217 63.6028C77.4811 61.6628 76.7697 59.8096 75.6483 58.2021C74.5269 56.5947 73.0292 55.2809 71.2834 54.3735C69.5377 53.4661 67.596 52.9921 65.625 52.9921H46.7203C42.3563 47.2606 40.3125 42.2124 40.3125 37.1874C40.3125 28.6204 47.4938 21.3827 55.9969 21.3827ZM6.5625 92.9687V74.3749C6.5625 74.1284 6.66127 73.8919 6.83709 73.7175C7.0129 73.5432 7.25136 73.4452 7.5 73.4452H19.6875V93.8984H7.5C7.25136 93.8984 7.0129 93.8004 6.83709 93.6261C6.66127 93.4517 6.5625 93.2153 6.5625 92.9687ZM103.256 79.0234L85.35 86.5864L55.9031 93.8984H25.3125V71.8136L36.1922 61.02C36.974 60.2406 37.904 59.6227 38.9283 59.2022C39.9526 58.7817 41.0508 58.5669 42.1594 58.5702H65.625C67.3655 58.5702 69.0347 59.2559 70.2654 60.4763C71.4961 61.6968 72.1875 63.3521 72.1875 65.0781C72.1875 66.804 71.4961 68.4593 70.2654 69.6798C69.0347 70.9002 67.3655 71.5859 65.625 71.5859H52.5C51.7541 71.5859 51.0387 71.8797 50.5113 72.4028C49.9838 72.9258 49.6875 73.6352 49.6875 74.3749C49.6875 75.1146 49.9838 75.8241 50.5113 76.3471C51.0387 76.8702 51.7541 77.164 52.5 77.164H67.5C67.7114 77.1642 67.9221 77.1408 68.1281 77.0943L99.5344 69.931L99.6469 69.9031C100.829 69.5836 102.088 69.7084 103.183 70.2535C104.278 70.7987 105.131 71.7259 105.579 72.8569C106.027 73.9879 106.037 75.243 105.608 76.3812C105.18 77.5194 104.342 78.4604 103.256 79.0234Z" fill="white"/>
</svg>
