<svg width="42" height="43" viewBox="0 0 42 43" fill="none" xmlns="http://www.w3.org/2000/svg">
<path d="M21 1.89995L21.6272 0.648353C21.4325 0.550797 21.2178 0.5 21 0.5C20.7822 0.5 20.5675 0.550797 20.3728 0.648353L21 1.89995ZM12.6 24.3V22.9H11.2V24.3H12.6ZM23.8 24.3H25.2V22.9H23.8V24.3ZM0 42.5H42V39.7H0V42.5ZM20.3728 0.648353L3.5728 9.04835L4.8272 11.5516L21.6272 3.15155L20.3728 0.648353ZM0 17.3H42V14.5H0V17.3ZM38.4272 9.04835L21.6272 0.648353L20.3728 3.15155L37.1728 11.5516L38.4272 9.04835ZM2.8 15.9V41.1H5.6V15.9H2.8ZM36.4 15.9V41.1H39.2V15.9H36.4ZM14 41.1V24.3H11.2V41.1H14ZM12.6 25.7H23.8V22.9H12.6V25.7ZM22.4 24.3V41.1H25.2V24.3H22.4Z" fill="#F9FAFB"/>
</svg>
