<svg width="40" height="40" viewBox="0 0 40 40" fill="none" xmlns="http://www.w3.org/2000/svg">
<path d="M21.6665 25.715L28.2498 19.1317C28.5642 18.8281 28.9852 18.6602 29.4222 18.664C29.8592 18.6678 30.2772 18.843 30.5862 19.152C30.8952 19.4611 31.0705 19.8791 31.0743 20.3161C31.0781 20.7531 30.9101 21.1741 30.6065 21.4884L21.1782 30.9167C21.0238 31.072 20.8402 31.1952 20.638 31.2793C20.4357 31.3634 20.2189 31.4067 19.9999 31.4067C19.7809 31.4067 19.564 31.3634 19.3618 31.2793C19.1596 31.1952 18.976 31.072 18.8215 30.9167L9.39326 21.4884C9.09717 21.1726 8.93554 20.7541 8.94257 20.3213C8.9496 19.8885 9.12473 19.4754 9.43092 19.1694C9.7371 18.8635 10.1503 18.6886 10.5831 18.6819C11.0159 18.6752 11.4344 18.8371 11.7499 19.1334L18.3332 25.7167L18.3332 9.74012C18.3332 9.29809 18.5088 8.87417 18.8214 8.56161C19.1339 8.24905 19.5578 8.07346 19.9999 8.07346C20.4419 8.07346 20.8658 8.24905 21.1784 8.56161C21.4909 8.87417 21.6665 9.29809 21.6665 9.74012L21.6665 25.715Z" fill="black"/>
</svg>
