<svg width="43" height="41" viewBox="0 0 43 41" fill="none" xmlns="http://www.w3.org/2000/svg">
<path d="M12.6667 16.5417C14.7442 16.5417 16.7366 15.7164 18.2057 14.2473C19.6747 12.7783 20.5 10.7859 20.5 8.70833C20.5 6.6308 19.6747 4.63836 18.2057 3.16933C16.7366 1.70029 14.7442 0.875 12.6667 0.875C10.5891 0.875 8.59669 1.70029 7.12765 3.16933C5.65862 4.63836 4.83332 6.6308 4.83332 8.70833C4.83332 10.7859 5.65862 12.7783 7.12765 14.2473C8.59669 15.7164 10.5891 16.5417 12.6667 16.5417ZM30.2917 16.5417C31.8498 16.5417 33.3441 15.9227 34.4459 14.8209C35.5477 13.7191 36.1667 12.2248 36.1667 10.6667C36.1667 9.10852 35.5477 7.61419 34.4459 6.51241C33.3441 5.41064 31.8498 4.79167 30.2917 4.79167C28.7335 4.79167 27.2392 5.41064 26.1374 6.51241C25.0356 7.61419 24.4167 9.10852 24.4167 10.6667C24.4167 12.2248 25.0356 13.7191 26.1374 14.8209C27.2392 15.9227 28.7335 16.5417 30.2917 16.5417ZM5.32291 20.4583C4.1543 20.4583 3.03355 20.9226 2.20722 21.7489C1.38089 22.5752 0.916656 23.696 0.916656 24.8646V25.3542C0.916656 25.3542 0.916656 34.1667 12.6667 34.1667C15.3887 34.1667 17.4802 33.6947 19.0861 32.9662C18.7239 31.7679 18.5404 30.5227 18.5417 29.2708C18.5417 26.0259 19.7558 23.0649 21.7533 20.8167C21.2029 20.5796 20.6097 20.4576 20.0104 20.4583H5.32291ZM42.0417 29.2708C42.0417 26.4142 40.9069 23.6746 38.887 21.6547C36.867 19.6348 34.1274 18.5 31.2708 18.5C28.4142 18.5 25.6746 19.6348 23.6547 21.6547C21.6348 23.6746 20.5 26.4142 20.5 29.2708C20.5 32.1274 21.6348 34.867 23.6547 36.887C25.6746 38.9069 28.4142 40.0417 31.2708 40.0417C34.1274 40.0417 36.867 38.9069 38.887 36.887C40.9069 34.867 42.0417 32.1274 42.0417 29.2708ZM32.25 30.25L32.2519 35.1517C32.2519 35.4114 32.1488 35.6605 31.9652 35.8441C31.7815 36.0277 31.5325 36.1309 31.2728 36.1309C31.0131 36.1309 30.764 36.0277 30.5804 35.8441C30.3968 35.6605 30.2936 35.4114 30.2936 35.1517V30.25H25.388C25.1283 30.25 24.8792 30.1468 24.6956 29.9632C24.512 29.7796 24.4088 29.5305 24.4088 29.2708C24.4088 29.0111 24.512 28.7621 24.6956 28.5785C24.8792 28.3948 25.1283 28.2917 25.388 28.2917H30.2917V23.3958C30.2917 23.1361 30.3948 22.8871 30.5784 22.7035C30.7621 22.5198 31.0111 22.4167 31.2708 22.4167C31.5305 22.4167 31.7796 22.5198 31.9632 22.7035C32.1468 22.8871 32.25 23.1361 32.25 23.3958V28.2917H37.1399C37.3996 28.2917 37.6487 28.3948 37.8323 28.5785C38.016 28.7621 38.1191 29.0111 38.1191 29.2708C38.1191 29.5305 38.016 29.7796 37.8323 29.9632C37.6487 30.1468 37.3996 30.25 37.1399 30.25H32.25Z" fill="#F9FAFB"/>
</svg>
