<svg width="141" height="141" viewBox="0 0 141 141" fill="none" xmlns="http://www.w3.org/2000/svg">
<g clip-path="url(#clip0_519_635)">
<path d="M72.8899 16.5298C78.1539 16.5298 83.2534 17.223 88.1061 18.5214L75.6159 31.0058C74.6683 31.9571 73.8326 33.0137 73.1249 34.1548H72.8899C64.7561 34.1548 56.805 36.5667 50.0421 41.0856C43.2791 45.6045 38.008 52.0273 34.8953 59.5419C31.7827 67.0565 30.9683 75.3254 32.5551 83.3029C34.1419 91.2803 38.0587 98.6081 43.8101 104.36C49.5616 110.111 56.8893 114.028 64.8668 115.615C72.8443 117.201 81.1131 116.387 88.6278 113.274C96.1424 110.162 102.565 104.891 107.084 98.1276C111.603 91.3646 114.015 83.4135 114.015 75.2798V75.0448C115.143 74.3398 116.2 73.5114 117.158 72.5479L129.648 60.0635C130.947 64.9163 131.64 70.0158 131.64 75.2798C131.64 107.727 105.338 134.03 72.8899 134.03C40.4423 134.03 14.1399 107.727 14.1399 75.2798C14.1399 42.8322 40.4423 16.5298 72.8899 16.5298ZM70.4576 46.0047C70.4576 51.0043 70.2109 56.0744 70.4811 61.0682L67.3086 64.2407C66.2173 65.332 65.3517 66.6275 64.761 68.0534C64.1704 69.4793 63.8665 71.0075 63.8665 72.5508C63.8665 74.0942 64.1704 75.6224 64.761 77.0483C65.3517 78.4742 66.2173 79.7697 67.3086 80.861C68.4 81.9523 69.6955 82.818 71.1214 83.4086C72.5473 83.9992 74.0755 84.3032 75.6188 84.3032C77.1622 84.3032 78.6904 83.9992 80.1163 83.4086C81.5421 82.818 82.8377 81.9523 83.929 80.861L87.1015 77.6885C92.0953 77.9588 97.1595 77.712 102.165 77.712C101.701 83.2953 99.6499 88.6294 96.2537 93.0852C92.8576 97.541 88.2581 100.933 82.9976 102.86C77.7371 104.788 72.0352 105.171 66.5641 103.964C61.0931 102.758 56.0813 100.012 52.1197 96.05C48.1581 92.0884 45.4121 87.0765 44.2054 81.6055C42.9987 76.1345 43.3818 70.4325 45.3093 65.1721C47.2369 59.9116 50.6286 55.3121 55.0845 51.9159C59.5403 48.5198 64.8744 46.4688 70.4576 46.0047ZM111.101 17.2759C112.173 17.7205 113.09 18.4729 113.735 19.438C114.38 20.4031 114.725 21.5377 114.726 22.6985V33.4498H125.471C126.633 33.45 127.769 33.7947 128.734 34.4403C129.7 35.0859 130.453 36.0033 130.898 37.0767C131.342 38.1501 131.459 39.3311 131.232 40.4706C131.005 41.6101 130.446 42.6568 129.625 43.4784L108.845 64.2348C107.743 65.3366 106.249 65.9558 104.691 65.9562H90.5149L79.7754 76.7015C78.673 77.8039 77.1778 78.4232 75.6188 78.4232C74.0598 78.4232 72.5647 77.8039 71.4623 76.7015C70.3599 75.5991 69.7406 74.104 69.7406 72.545C69.7406 70.986 70.3599 69.4908 71.4623 68.3884L82.2076 57.6548V43.4725C82.207 42.7001 82.3588 41.9351 82.6541 41.2214C82.9495 40.5076 83.3827 39.8592 83.929 39.313L104.697 18.5449C105.519 17.7228 106.566 17.1629 107.706 16.9359C108.846 16.709 110.027 16.8253 111.101 17.27" fill="white"/>
</g>
<defs>
<clipPath id="clip0_519_635">
<rect width="141" height="141" fill="white"/>
</clipPath>
</defs>
</svg>
