<svg width="42" height="40" viewBox="0 0 42 40" fill="none" xmlns="http://www.w3.org/2000/svg">
<path d="M15.5433 8.1895C17.9717 4.11883 19.1849 2.0835 21 2.0835C22.8151 2.0835 24.0283 4.11883 26.4568 8.1895L27.0854 9.243C27.7754 10.4004 28.1204 10.9791 28.6571 11.3607C29.1937 11.7424 29.8646 11.8839 31.2063 12.167L32.4253 12.425C37.1403 13.423 39.4958 13.921 40.0574 15.607C40.6171 17.2912 39.0109 19.0488 35.7967 22.5622L34.9648 23.4706C34.0525 24.4686 33.5944 24.9685 33.3893 25.5848C33.1843 26.2029 33.2532 26.8694 33.3912 28.2006L33.5177 29.4136C34.0027 34.1024 34.2461 36.4459 32.7779 37.4868C31.3098 38.5296 29.1018 37.5782 24.6896 35.679L23.5453 35.1881C22.2918 34.647 21.6651 34.3783 21 34.3783C20.3349 34.3783 19.7082 34.647 18.4547 35.1881L17.3123 35.679C12.8983 37.5782 10.6903 38.5278 9.224 37.4886C7.75392 36.4459 7.99734 34.1024 8.48225 29.4136L8.60875 28.2024C8.74675 26.8694 8.81575 26.2029 8.60875 25.5866C8.40559 24.9685 7.9475 24.4686 7.03517 23.4724L6.20334 22.5622C2.98909 19.0506 1.38292 17.293 1.94259 15.607C2.50417 13.921 4.86167 13.4212 9.57667 12.425L10.7957 12.167C12.1354 11.8839 12.8043 11.7424 13.3429 11.3607C13.8796 10.9791 14.2246 10.4004 14.9146 9.243L15.5433 8.1895Z" stroke="white" stroke-width="3"/>
</svg>
