<svg width="121" height="121" viewBox="0 0 121 121" fill="none" xmlns="http://www.w3.org/2000/svg">
<path fill-rule="evenodd" clip-rule="evenodd" d="M32.9474 16.3853C31.4946 16.3857 30.0645 16.7449 28.7839 17.4309C27.5033 18.117 26.412 19.1086 25.6067 20.3178L7.51218 47.452C6.40806 49.1158 6.27697 51.2433 7.16935 53.0281C17.0716 72.8321 30.8327 90.4568 47.6438 104.866L56.4668 112.434C57.5907 113.397 59.0222 113.927 60.5026 113.927C61.983 113.927 63.4145 113.397 64.5385 112.434L73.3614 104.872C90.175 90.461 103.938 72.8344 113.841 53.0281C114.733 51.2433 114.597 49.1158 113.493 47.452L95.3884 20.3178C94.5831 19.1102 93.4923 18.12 92.2127 17.435C90.9331 16.7499 89.5043 16.391 88.0528 16.3903L32.9474 16.3853ZM31.8987 24.5074C32.014 24.335 32.17 24.1938 32.3529 24.0962C32.5359 23.9986 32.74 23.9476 32.9474 23.9478H44.7449L35.0901 47.1193C34.8689 47.6494 34.7001 48.1999 34.5859 48.7628C31.0353 48.4978 27.4889 48.1784 23.948 47.8049L16.8645 47.0638L31.8987 24.5074ZM16.5368 54.6313C25.5836 71.2288 37.5253 86.0749 51.7982 98.4686L36.043 56.4514C31.7444 56.1561 27.4516 55.7829 23.1666 55.3321L16.5368 54.6313ZM44.2962 56.9203L60.5001 100.148L76.7091 56.9203C65.9087 57.4112 55.0915 57.4112 44.2911 56.9203M84.9623 56.4514L69.2071 98.4686C83.4799 86.0749 95.4217 71.2288 104.468 54.6313L97.8387 55.3321C93.5533 55.7808 89.2628 56.1539 84.9623 56.4514ZM104.136 47.0638L97.0471 47.81C93.5063 48.1835 89.9599 48.5028 86.4092 48.7679C86.2971 48.2033 86.1299 47.6512 85.9101 47.1193L76.2553 23.9478H88.0528C88.2601 23.9476 88.4643 23.9986 88.6473 24.0962C88.8302 24.1938 88.9862 24.335 89.1015 24.5074L104.136 47.0638ZM78.6098 49.2569C66.5451 49.8821 54.4602 49.8821 42.3904 49.2569L52.9376 23.9478H68.0626L78.6098 49.2569Z" fill="white"/>
</svg>
