<svg width="34" height="35" viewBox="0 0 34 35" fill="none" xmlns="http://www.w3.org/2000/svg">
<g clip-path="url(#clip0_519_463)">
<path d="M6.2082 0C2.76913 0 0 2.85057 0 6.39079V28.6092C0 32.1495 2.76913 35 6.2082 35H17.9063V21.3172H14.3916V16.391H17.9063V12.1822C17.9063 8.87558 19.983 5.83954 24.7669 5.83954C26.7038 5.83954 28.1361 6.03096 28.1361 6.03096L28.0234 10.6313C28.0234 10.6313 26.5627 10.6171 24.9688 10.6171C23.2436 10.6171 22.967 11.4353 22.967 12.7937V16.391H28.1605L27.9342 21.3172H22.967V35.0001H27.7918C31.2309 35.0001 34 32.1495 34 28.6093V6.39083C34 2.85061 31.2309 3.5e-05 27.7918 3.5e-05H6.20816L6.2082 0Z" fill="black"/>
</g>
<defs>
<clipPath id="clip0_519_463">
<rect width="34" height="35" fill="white"/>
</clipPath>
</defs>
</svg>
