<svg width="15" height="17" viewBox="0 0 15 17" fill="none" xmlns="http://www.w3.org/2000/svg">
<path d="M8.55796 12.3137L12.9807 7.90754C13.1919 7.70435 13.4747 7.59192 13.7683 7.59446C14.0619 7.597 14.3428 7.71431 14.5504 7.92113C14.758 8.12795 14.8758 8.40772 14.8784 8.7002C14.881 8.99267 14.7681 9.27444 14.5641 9.48482L8.2301 15.7951C8.12636 15.899 8.00301 15.9815 7.86715 16.0378C7.73129 16.0941 7.5856 16.123 7.43846 16.123C7.29131 16.123 7.14562 16.0941 7.00975 16.0378C6.87388 15.9815 6.75052 15.899 6.64677 15.7951L0.311902 9.48482C0.112958 9.2735 0.00434684 8.99336 0.00904961 8.70369C0.0137524 8.41402 0.131402 8.13754 0.337101 7.93276C0.5428 7.72798 0.820413 7.61096 1.1112 7.60646C1.40198 7.60196 1.68312 7.71034 1.89513 7.90866L6.31845 12.3148L6.31776 1.62185C6.31774 1.326 6.43569 1.04228 6.64567 0.833087C6.85565 0.623895 7.14046 0.506371 7.43744 0.506371C7.73442 0.506371 8.01924 0.623895 8.22925 0.833087C8.43925 1.04228 8.55725 1.326 8.55727 1.62185L8.55796 12.3137Z" fill="black"/>
</svg>
