<svg width="33" height="33" viewBox="0 0 33 33" fill="none" xmlns="http://www.w3.org/2000/svg">
<path d="M3.09375 12.375C3.09375 5.15625 10.3125 5.15625 16.5 5.15625C22.6875 5.15625 29.9062 5.15625 29.9062 12.375C29.9062 20.625 22.6875 11.3438 22.6875 11.3438H10.3125C10.3125 11.3438 3.09375 20.625 3.09375 12.375ZM11.3438 14.4375C11.3438 14.4375 6.1875 19.5938 6.1875 28.875H26.8125C26.8125 19.5938 21.6562 14.4375 21.6562 14.4375H11.3438Z" stroke="#575656" stroke-width="2" stroke-linecap="round" stroke-linejoin="round"/>
<path d="M16.5 25.7812C18.7782 25.7812 20.625 23.9344 20.625 21.6562C20.625 19.3781 18.7782 17.5312 16.5 17.5312C14.2218 17.5312 12.375 19.3781 12.375 21.6562C12.375 23.9344 14.2218 25.7812 16.5 25.7812Z" stroke="#575656" stroke-width="2" stroke-linecap="round" stroke-linejoin="round"/>
</svg>
