<svg width="27" height="27" viewBox="0 0 27 27" fill="none" xmlns="http://www.w3.org/2000/svg">
<path d="M21.4312 5.52382C20.3998 4.48198 19.1712 3.65594 17.8172 3.09387C16.4633 2.53181 15.0109 2.24496 13.5449 2.25007C7.4024 2.25007 2.39615 7.25632 2.39615 13.3988C2.39615 15.3676 2.91365 17.2801 3.88115 18.9676L2.30615 24.7501L8.2124 23.1976C9.84365 24.0863 11.6774 24.5588 13.5449 24.5588C19.6874 24.5588 24.6937 19.5526 24.6937 13.4101C24.6937 10.4288 23.5349 7.62757 21.4312 5.52382ZM13.5449 22.6688C11.8799 22.6688 10.2487 22.2188 8.8199 21.3751L8.4824 21.1726L4.9724 22.0951L5.90615 18.6751L5.68115 18.3263C4.75612 16.8492 4.26494 15.1417 4.26365 13.3988C4.26365 8.29132 8.42615 4.12882 13.5337 4.12882C16.0087 4.12882 18.3374 5.09632 20.0812 6.85132C20.9446 7.71078 21.6288 8.73306 22.0942 9.85892C22.5596 10.9848 22.7969 12.1918 22.7924 13.4101C22.8149 18.5176 18.6524 22.6688 13.5449 22.6688ZM18.6299 15.7388C18.3487 15.6038 16.9762 14.9288 16.7287 14.8276C16.4699 14.7376 16.2899 14.6926 16.0987 14.9626C15.9074 15.2438 15.3787 15.8738 15.2212 16.0538C15.0637 16.2451 14.8949 16.2676 14.6137 16.1213C14.3324 15.9863 13.4324 15.6826 12.3749 14.7376C11.5424 13.9951 10.9912 13.0838 10.8224 12.8026C10.6649 12.5213 10.7999 12.3751 10.9462 12.2288C11.0699 12.1051 11.2274 11.9026 11.3624 11.7451C11.4974 11.5876 11.5537 11.4638 11.6437 11.2838C11.7337 11.0926 11.6887 10.9351 11.6212 10.8001C11.5537 10.6651 10.9912 9.29257 10.7662 8.73007C10.5412 8.19007 10.3049 8.25757 10.1362 8.24632H9.59615C9.4049 8.24632 9.1124 8.31382 8.85365 8.59507C8.60615 8.87632 7.88615 9.55132 7.88615 10.9238C7.88615 12.2963 8.8874 13.6238 9.0224 13.8038C9.1574 13.9951 10.9912 16.8076 13.7812 18.0113C14.4449 18.3038 14.9624 18.4726 15.3674 18.5963C16.0312 18.8101 16.6387 18.7763 17.1224 18.7088C17.6624 18.6301 18.7762 18.0338 19.0012 17.3813C19.2374 16.7288 19.2374 16.1776 19.1587 16.0538C19.0799 15.9301 18.9112 15.8738 18.6299 15.7388Z" fill="#575656"/>
</svg>
