<svg width="39" height="41" viewBox="0 0 39 41" fill="none" xmlns="http://www.w3.org/2000/svg">
<path fill-rule="evenodd" clip-rule="evenodd" d="M9.44357 2.30469C7.52018 2.30469 5.67552 3.10774 4.31521 4.53726C2.9549 5.96677 2.19031 7.90573 2.18958 9.92776V30.2638C2.18958 32.2863 2.95383 34.226 4.31422 35.6562C5.67461 37.0863 7.51969 37.8898 9.44357 37.8898H28.7876C30.711 37.889 32.5553 37.0852 33.9151 35.6551C35.2749 34.2251 36.0388 32.2858 36.0388 30.2638V9.92776C36.038 7.90623 35.2738 5.96773 33.9141 4.53829C32.5544 3.10886 30.7105 2.30546 28.7876 2.30469H9.44357ZM30.8741 9.93947C30.8741 10.522 30.654 11.0807 30.2621 11.4926C29.8703 11.9045 29.3389 12.1359 28.7848 12.1359C28.2307 12.1359 27.6993 11.9045 27.3074 11.4926C26.9156 11.0807 26.6955 10.522 26.6955 9.93947C26.6955 9.35694 26.9156 8.79827 27.3074 8.38636C27.6993 7.97445 28.2307 7.74304 28.7848 7.74304C29.3389 7.74304 29.8703 7.97445 30.2621 8.38636C30.654 8.79827 30.8741 9.35694 30.8741 9.93947ZM19.1184 14.0043C17.5816 14.0043 16.1078 14.6461 15.0212 15.7885C13.9345 16.9308 13.3241 18.4802 13.3241 20.0958C13.3241 21.7113 13.9345 23.2607 15.0212 24.403C16.1078 25.5454 17.5816 26.1872 19.1184 26.1872C20.6551 26.1872 22.1289 25.5454 23.2155 24.403C24.3022 23.2607 24.9126 21.7113 24.9126 20.0958C24.9126 18.4802 24.3022 16.9308 23.2155 15.7885C22.1289 14.6461 20.6551 14.0043 19.1184 14.0043ZM10.5356 20.0958C10.5356 17.7035 11.4395 15.4092 13.0486 13.7177C14.6577 12.0261 16.84 11.0758 19.1156 11.0758C21.3911 11.0758 23.5735 12.0261 25.1826 13.7177C26.7916 15.4092 27.6956 17.7035 27.6956 20.0958C27.6956 22.488 26.7916 24.7823 25.1826 26.4739C23.5735 28.1654 21.3911 29.1158 19.1156 29.1158C16.84 29.1158 14.6577 28.1654 13.0486 26.4739C11.4395 24.7823 10.5356 22.488 10.5356 20.0958Z" fill="black"/>
</svg>
